<mxfile host="Electron" modified="2023-07-02T12:16:29.759Z" agent="Mozilla/5.0 (X11; Linux x86_64) AppleWebKit/537.36 (KHTML, like Gecko) draw.io/21.5.0 Chrome/112.0.5615.204 Electron/24.5.1 Safari/537.36" etag="A3zkITt57nZ7qw20M4xJ" version="21.5.0" type="device">
  <diagram name="Page-1" id="nMqs0TPw7m_UK9TxJN6q">
    <mxGraphModel dx="1254" dy="766" grid="1" gridSize="10" guides="1" tooltips="1" connect="1" arrows="1" fold="1" page="1" pageScale="1" pageWidth="8000" pageHeight="2000" math="0" shadow="0">
      <root>
        <mxCell id="0" />
        <mxCell id="1" parent="0" />
        <mxCell id="LmqgDKNG7vSiQx1K-JEj-1" value="بداية" style="strokeWidth=2;html=1;shape=mxgraph.flowchart.start_1;whiteSpace=wrap;fontSize=20;rounded=0;" parent="1" vertex="1">
          <mxGeometry x="5265" y="520" width="150" height="60" as="geometry" />
        </mxCell>
        <mxCell id="LmqgDKNG7vSiQx1K-JEj-4" value="" style="endArrow=classic;html=1;rounded=0;exitX=0.5;exitY=1;exitDx=0;exitDy=0;exitPerimeter=0;entryX=0.5;entryY=0;entryDx=0;entryDy=0;fontSize=20;" parent="1" source="LmqgDKNG7vSiQx1K-JEj-1" target="LmqgDKNG7vSiQx1K-JEj-5" edge="1">
          <mxGeometry width="50" height="50" relative="1" as="geometry">
            <mxPoint x="5335" y="600" as="sourcePoint" />
            <mxPoint x="5340" y="730" as="targetPoint" />
          </mxGeometry>
        </mxCell>
        <mxCell id="LmqgDKNG7vSiQx1K-JEj-5" value="زائر يزور الموقع" style="rounded=0;whiteSpace=wrap;html=1;absoluteArcSize=1;arcSize=14;strokeWidth=2;fontSize=20;" parent="1" vertex="1">
          <mxGeometry x="5265" y="640" width="150" height="60" as="geometry" />
        </mxCell>
        <mxCell id="LmqgDKNG7vSiQx1K-JEj-12" value="إنشاء حساب كمورد" style="rounded=0;whiteSpace=wrap;html=1;absoluteArcSize=1;arcSize=14;strokeWidth=2;fontSize=20;" parent="1" vertex="1">
          <mxGeometry x="3330" y="796.5" width="180" height="60" as="geometry" />
        </mxCell>
        <mxCell id="LmqgDKNG7vSiQx1K-JEj-14" value="إنشاء حساب كعميل" style="rounded=0;whiteSpace=wrap;html=1;absoluteArcSize=1;arcSize=14;strokeWidth=2;fontSize=20;" parent="1" vertex="1">
          <mxGeometry x="3931" y="1067.5" width="180" height="60" as="geometry" />
        </mxCell>
        <mxCell id="LmqgDKNG7vSiQx1K-JEj-18" value="طلب خدمة" style="rounded=0;whiteSpace=wrap;html=1;absoluteArcSize=1;arcSize=14;strokeWidth=2;fontSize=20;" parent="1" vertex="1">
          <mxGeometry x="3931" y="1217.5" width="180" height="60" as="geometry" />
        </mxCell>
        <mxCell id="LmqgDKNG7vSiQx1K-JEj-19" value="" style="endArrow=classic;html=1;rounded=0;exitX=0.5;exitY=1;exitDx=0;exitDy=0;entryX=0.5;entryY=0;entryDx=0;entryDy=0;fontSize=20;" parent="1" source="LmqgDKNG7vSiQx1K-JEj-12" target="OWXursuf30YPNI_E8Gxk-4" edge="1">
          <mxGeometry width="50" height="50" relative="1" as="geometry">
            <mxPoint x="3290" y="827.5" as="sourcePoint" />
            <mxPoint x="3420" y="927.5" as="targetPoint" />
          </mxGeometry>
        </mxCell>
        <mxCell id="LmqgDKNG7vSiQx1K-JEj-33" value="شحن المحفظة" style="rounded=0;whiteSpace=wrap;html=1;absoluteArcSize=1;arcSize=14;strokeWidth=2;fontSize=20;" parent="1" vertex="1">
          <mxGeometry x="3325" y="1577.5" width="180" height="70" as="geometry" />
        </mxCell>
        <mxCell id="LmqgDKNG7vSiQx1K-JEj-34" value="" style="endArrow=classic;html=1;rounded=0;exitX=0.5;exitY=1;exitDx=0;exitDy=0;entryX=0.5;entryY=0;entryDx=0;entryDy=0;fontSize=20;" parent="1" source="LmqgDKNG7vSiQx1K-JEj-14" target="LmqgDKNG7vSiQx1K-JEj-18" edge="1">
          <mxGeometry width="50" height="50" relative="1" as="geometry">
            <mxPoint x="4571" y="1137.5" as="sourcePoint" />
            <mxPoint x="4571" y="1217.5" as="targetPoint" />
          </mxGeometry>
        </mxCell>
        <mxCell id="LmqgDKNG7vSiQx1K-JEj-38" value="" style="endArrow=classic;html=1;rounded=0;exitX=0.5;exitY=1;exitDx=0;exitDy=0;fontSize=20;" parent="1" source="LmqgDKNG7vSiQx1K-JEj-39" edge="1">
          <mxGeometry width="50" height="50" relative="1" as="geometry">
            <mxPoint x="3530" y="1177.5" as="sourcePoint" />
            <mxPoint x="3420" y="1207.5" as="targetPoint" />
            <Array as="points">
              <mxPoint x="3420" y="1177.5" />
              <mxPoint x="3420" y="1187.5" />
            </Array>
          </mxGeometry>
        </mxCell>
        <mxCell id="LmqgDKNG7vSiQx1K-JEj-39" value="إختيار خدمة" style="rounded=0;whiteSpace=wrap;html=1;absoluteArcSize=1;arcSize=14;strokeWidth=2;fontSize=20;" parent="1" vertex="1">
          <mxGeometry x="3330" y="1067.5" width="180" height="60" as="geometry" />
        </mxCell>
        <mxCell id="LmqgDKNG7vSiQx1K-JEj-42" value="قبول عرض السعر" style="rounded=0;whiteSpace=wrap;html=1;absoluteArcSize=1;arcSize=14;strokeWidth=2;fontSize=20;" parent="1" vertex="1">
          <mxGeometry x="3931" y="1507.5" width="180" height="60" as="geometry" />
        </mxCell>
        <mxCell id="LmqgDKNG7vSiQx1K-JEj-46" value="" style="endArrow=classic;html=1;rounded=0;exitX=0;exitY=0.5;exitDx=0;exitDy=0;exitPerimeter=0;entryX=1;entryY=0.5;entryDx=0;entryDy=0;fontSize=20;" parent="1" source="OWXursuf30YPNI_E8Gxk-1" target="OWXursuf30YPNI_E8Gxk-3" edge="1">
          <mxGeometry width="50" height="50" relative="1" as="geometry">
            <mxPoint x="3390" y="1237.5" as="sourcePoint" />
            <mxPoint x="3240" y="1167.5" as="targetPoint" />
            <Array as="points" />
          </mxGeometry>
        </mxCell>
        <mxCell id="OWXursuf30YPNI_E8Gxk-1" value="هل يوجد مال في المحفظة؟" style="strokeWidth=2;html=1;shape=mxgraph.flowchart.decision;whiteSpace=wrap;fontSize=20;rounded=0;" parent="1" vertex="1">
          <mxGeometry x="3310" y="1347.5" width="210" height="100" as="geometry" />
        </mxCell>
        <mxCell id="OWXursuf30YPNI_E8Gxk-3" value="خصم من المحفظة" style="rounded=0;whiteSpace=wrap;html=1;absoluteArcSize=1;arcSize=14;strokeWidth=2;fontSize=20;" parent="1" vertex="1">
          <mxGeometry x="3030" y="1362.5" width="150" height="70" as="geometry" />
        </mxCell>
        <mxCell id="OWXursuf30YPNI_E8Gxk-4" value="عرض الخدمات" style="rounded=0;whiteSpace=wrap;html=1;absoluteArcSize=1;arcSize=14;strokeWidth=2;fontSize=20;" parent="1" vertex="1">
          <mxGeometry x="3330" y="937.5" width="180" height="60" as="geometry" />
        </mxCell>
        <mxCell id="OWXursuf30YPNI_E8Gxk-6" value="" style="endArrow=classic;html=1;rounded=0;exitX=0.5;exitY=1;exitDx=0;exitDy=0;entryX=0.5;entryY=0;entryDx=0;entryDy=0;fontSize=20;" parent="1" source="OWXursuf30YPNI_E8Gxk-4" target="LmqgDKNG7vSiQx1K-JEj-39" edge="1">
          <mxGeometry width="50" height="50" relative="1" as="geometry">
            <mxPoint x="3430" y="867.5" as="sourcePoint" />
            <mxPoint x="3430" y="947.5" as="targetPoint" />
          </mxGeometry>
        </mxCell>
        <mxCell id="OWXursuf30YPNI_E8Gxk-7" value="تقديم عرض السعر" style="rounded=0;whiteSpace=wrap;html=1;absoluteArcSize=1;arcSize=14;strokeWidth=2;fontSize=20;" parent="1" vertex="1">
          <mxGeometry x="3325" y="1207.5" width="180" height="60" as="geometry" />
        </mxCell>
        <mxCell id="OWXursuf30YPNI_E8Gxk-13" value="" style="endArrow=classic;html=1;rounded=0;entryX=0.5;entryY=0;entryDx=0;entryDy=0;entryPerimeter=0;exitX=0.5;exitY=1;exitDx=0;exitDy=0;fontSize=20;" parent="1" source="OWXursuf30YPNI_E8Gxk-7" target="OWXursuf30YPNI_E8Gxk-1" edge="1">
          <mxGeometry width="50" height="50" relative="1" as="geometry">
            <mxPoint x="3150" y="1297.5" as="sourcePoint" />
            <mxPoint x="3200" y="1247.5" as="targetPoint" />
          </mxGeometry>
        </mxCell>
        <mxCell id="OWXursuf30YPNI_E8Gxk-14" value="نعم" style="text;html=1;strokeColor=none;fillColor=none;align=center;verticalAlign=middle;whiteSpace=wrap;rounded=0;fontSize=20;" parent="1" vertex="1">
          <mxGeometry x="3220" y="1367.5" width="60" height="30" as="geometry" />
        </mxCell>
        <mxCell id="OWXursuf30YPNI_E8Gxk-16" value="لا" style="text;html=1;strokeColor=none;fillColor=none;align=center;verticalAlign=middle;whiteSpace=wrap;rounded=0;fontSize=20;" parent="1" vertex="1">
          <mxGeometry x="3410" y="1457.5" width="60" height="30" as="geometry" />
        </mxCell>
        <mxCell id="OWXursuf30YPNI_E8Gxk-17" value="" style="endArrow=classic;html=1;rounded=0;entryX=0.5;entryY=0;entryDx=0;entryDy=0;exitX=0.5;exitY=1;exitDx=0;exitDy=0;exitPerimeter=0;fontSize=20;" parent="1" source="OWXursuf30YPNI_E8Gxk-1" target="LmqgDKNG7vSiQx1K-JEj-33" edge="1">
          <mxGeometry width="50" height="50" relative="1" as="geometry">
            <mxPoint x="3150" y="1417.5" as="sourcePoint" />
            <mxPoint x="3200" y="1367.5" as="targetPoint" />
          </mxGeometry>
        </mxCell>
        <mxCell id="OWXursuf30YPNI_E8Gxk-18" value="" style="endArrow=classic;html=1;rounded=0;exitX=1;exitY=0.5;exitDx=0;exitDy=0;entryX=1;entryY=0.5;entryDx=0;entryDy=0;entryPerimeter=0;fontSize=20;" parent="1" source="LmqgDKNG7vSiQx1K-JEj-33" target="OWXursuf30YPNI_E8Gxk-1" edge="1">
          <mxGeometry width="50" height="50" relative="1" as="geometry">
            <mxPoint x="3140" y="1427.5" as="sourcePoint" />
            <mxPoint x="3760" y="1397.5" as="targetPoint" />
            <Array as="points">
              <mxPoint x="3690" y="1612.5" />
              <mxPoint x="3690" y="1397.5" />
            </Array>
          </mxGeometry>
        </mxCell>
        <mxCell id="OWXursuf30YPNI_E8Gxk-20" value="عرض جميع عروض الأسعار" style="rounded=0;whiteSpace=wrap;html=1;absoluteArcSize=1;arcSize=14;strokeWidth=2;fontSize=20;" parent="1" vertex="1">
          <mxGeometry x="3931" y="1367.5" width="180" height="60" as="geometry" />
        </mxCell>
        <mxCell id="OWXursuf30YPNI_E8Gxk-21" value="" style="endArrow=classic;html=1;rounded=0;exitX=0.5;exitY=1;exitDx=0;exitDy=0;entryX=0.5;entryY=0;entryDx=0;entryDy=0;fontSize=20;" parent="1" source="LmqgDKNG7vSiQx1K-JEj-18" target="OWXursuf30YPNI_E8Gxk-20" edge="1">
          <mxGeometry width="50" height="50" relative="1" as="geometry">
            <mxPoint x="4021" y="1407.5" as="sourcePoint" />
            <mxPoint x="4031" y="1357.5" as="targetPoint" />
          </mxGeometry>
        </mxCell>
        <mxCell id="OWXursuf30YPNI_E8Gxk-22" value="" style="endArrow=classic;html=1;rounded=0;exitX=0.5;exitY=1;exitDx=0;exitDy=0;entryX=0.5;entryY=0;entryDx=0;entryDy=0;fontSize=20;" parent="1" source="OWXursuf30YPNI_E8Gxk-20" target="LmqgDKNG7vSiQx1K-JEj-42" edge="1">
          <mxGeometry width="50" height="50" relative="1" as="geometry">
            <mxPoint x="4041" y="1297.5" as="sourcePoint" />
            <mxPoint x="4041" y="1367.5" as="targetPoint" />
          </mxGeometry>
        </mxCell>
        <mxCell id="drWHg7Pd6hAd3pLp65W0-11" value="" style="endArrow=none;html=1;rounded=0;entryX=0.5;entryY=1;entryDx=0;entryDy=0;fontSize=20;exitX=0.5;exitY=0;exitDx=0;exitDy=0;exitPerimeter=0;" parent="1" target="LmqgDKNG7vSiQx1K-JEj-5" edge="1" source="4wWl5RKdFTkH0k4PYltG-3">
          <mxGeometry width="50" height="50" relative="1" as="geometry">
            <mxPoint x="5340" y="810" as="sourcePoint" />
            <mxPoint x="6010" y="920" as="targetPoint" />
          </mxGeometry>
        </mxCell>
        <mxCell id="drWHg7Pd6hAd3pLp65W0-13" value="نهاية" style="strokeWidth=2;html=1;shape=mxgraph.flowchart.start_1;whiteSpace=wrap;fontSize=20;rounded=0;" parent="1" vertex="1">
          <mxGeometry x="5210" y="2550" width="190" height="90" as="geometry" />
        </mxCell>
        <mxCell id="drWHg7Pd6hAd3pLp65W0-15" value="" style="endArrow=classic;html=1;rounded=0;exitX=0.5;exitY=1;exitDx=0;exitDy=0;entryX=0.5;entryY=0;entryDx=0;entryDy=0;entryPerimeter=0;fontSize=20;" parent="1" source="OWXursuf30YPNI_E8Gxk-3" target="drWHg7Pd6hAd3pLp65W0-13" edge="1">
          <mxGeometry width="50" height="50" relative="1" as="geometry">
            <mxPoint x="5890" y="1650" as="sourcePoint" />
            <mxPoint x="5940" y="1600" as="targetPoint" />
            <Array as="points">
              <mxPoint x="3120" y="1670" />
            </Array>
          </mxGeometry>
        </mxCell>
        <mxCell id="drWHg7Pd6hAd3pLp65W0-16" value="" style="endArrow=classic;html=1;rounded=0;exitX=0.5;exitY=1;exitDx=0;exitDy=0;entryX=0.5;entryY=0;entryDx=0;entryDy=0;entryPerimeter=0;fontSize=20;" parent="1" source="LmqgDKNG7vSiQx1K-JEj-42" target="drWHg7Pd6hAd3pLp65W0-13" edge="1">
          <mxGeometry width="50" height="50" relative="1" as="geometry">
            <mxPoint x="5975" y="1555" as="sourcePoint" />
            <mxPoint x="5850" y="1770" as="targetPoint" />
          </mxGeometry>
        </mxCell>
        <mxCell id="drWHg7Pd6hAd3pLp65W0-64" style="edgeStyle=orthogonalEdgeStyle;rounded=0;orthogonalLoop=1;jettySize=auto;html=1;exitX=0.5;exitY=1;exitDx=0;exitDy=0;entryX=-0.033;entryY=0.533;entryDx=0;entryDy=0;entryPerimeter=0;fontSize=20;" parent="1" source="drWHg7Pd6hAd3pLp65W0-17" target="drWHg7Pd6hAd3pLp65W0-63" edge="1">
          <mxGeometry relative="1" as="geometry" />
        </mxCell>
        <mxCell id="drWHg7Pd6hAd3pLp65W0-17" value="صفحة تسجيل الدخول" style="rounded=0;whiteSpace=wrap;html=1;absoluteArcSize=1;arcSize=14;strokeWidth=2;fontSize=20;" parent="1" vertex="1">
          <mxGeometry x="5249" y="1097.5" width="180" height="60" as="geometry" />
        </mxCell>
        <mxCell id="drWHg7Pd6hAd3pLp65W0-25" value="بيانات تسجيل الدخول&lt;br style=&quot;font-size: 20px;&quot;&gt;رقم الهاتف&lt;br style=&quot;font-size: 20px;&quot;&gt;كلمة السر" style="shape=parallelogram;html=1;strokeWidth=2;perimeter=parallelogramPerimeter;whiteSpace=wrap;rounded=0;arcSize=12;size=0.23;fontSize=20;" parent="1" vertex="1">
          <mxGeometry x="5379" y="1277.5" width="240" height="80" as="geometry" />
        </mxCell>
        <mxCell id="drWHg7Pd6hAd3pLp65W0-29" value="" style="endArrow=classic;html=1;rounded=0;exitX=0.5;exitY=1;exitDx=0;exitDy=0;entryX=0.5;entryY=0;entryDx=0;entryDy=0;fontSize=20;" parent="1" source="drWHg7Pd6hAd3pLp65W0-25" target="drWHg7Pd6hAd3pLp65W0-43" edge="1">
          <mxGeometry width="50" height="50" relative="1" as="geometry">
            <mxPoint x="5329" y="1737.5" as="sourcePoint" />
            <mxPoint x="5339" y="1727.5" as="targetPoint" />
          </mxGeometry>
        </mxCell>
        <mxCell id="drWHg7Pd6hAd3pLp65W0-30" value="هل البيانات صحيحة" style="strokeWidth=2;html=1;shape=mxgraph.flowchart.decision;whiteSpace=wrap;fontSize=20;rounded=0;" parent="1" vertex="1">
          <mxGeometry x="5459" y="1757.5" width="210" height="110" as="geometry" />
        </mxCell>
        <mxCell id="drWHg7Pd6hAd3pLp65W0-31" value="" style="endArrow=classic;html=1;rounded=0;exitX=0;exitY=0.5;exitDx=0;exitDy=0;exitPerimeter=0;entryX=1;entryY=0.5;entryDx=0;entryDy=0;fontSize=20;" parent="1" source="drWHg7Pd6hAd3pLp65W0-30" target="drWHg7Pd6hAd3pLp65W0-36" edge="1">
          <mxGeometry width="50" height="50" relative="1" as="geometry">
            <mxPoint x="5284" y="1827.5" as="sourcePoint" />
            <mxPoint x="5164" y="1822.5" as="targetPoint" />
            <Array as="points" />
          </mxGeometry>
        </mxCell>
        <mxCell id="drWHg7Pd6hAd3pLp65W0-32" value="لا" style="text;html=1;strokeColor=none;fillColor=none;align=center;verticalAlign=middle;whiteSpace=wrap;rounded=0;fontSize=20;" parent="1" vertex="1">
          <mxGeometry x="5404" y="1787.5" width="60" height="30" as="geometry" />
        </mxCell>
        <mxCell id="drWHg7Pd6hAd3pLp65W0-33" value="نعم" style="text;html=1;strokeColor=none;fillColor=none;align=center;verticalAlign=middle;whiteSpace=wrap;rounded=0;fontSize=20;" parent="1" vertex="1">
          <mxGeometry x="5409" y="1907.5" width="60" height="30" as="geometry" />
        </mxCell>
        <mxCell id="drWHg7Pd6hAd3pLp65W0-34" value="" style="endArrow=classic;html=1;rounded=0;exitX=0.5;exitY=1;exitDx=0;exitDy=0;exitPerimeter=0;entryX=0.5;entryY=0;entryDx=0;entryDy=0;fontSize=20;entryPerimeter=0;" parent="1" source="drWHg7Pd6hAd3pLp65W0-30" target="4wWl5RKdFTkH0k4PYltG-19" edge="1">
          <mxGeometry width="50" height="50" relative="1" as="geometry">
            <mxPoint x="5334" y="1907.5" as="sourcePoint" />
            <mxPoint x="5559" y="2000" as="targetPoint" />
          </mxGeometry>
        </mxCell>
        <mxCell id="drWHg7Pd6hAd3pLp65W0-36" value="إعادة تسجيل الدخول" style="rounded=0;whiteSpace=wrap;html=1;absoluteArcSize=1;arcSize=14;strokeWidth=2;fontSize=20;" parent="1" vertex="1">
          <mxGeometry x="5224" y="1782.5" width="180" height="60" as="geometry" />
        </mxCell>
        <mxCell id="drWHg7Pd6hAd3pLp65W0-37" value="" style="endArrow=classic;html=1;rounded=0;exitX=0.5;exitY=0;exitDx=0;exitDy=0;entryX=0;entryY=0.75;entryDx=0;entryDy=0;fontSize=20;" parent="1" source="drWHg7Pd6hAd3pLp65W0-36" target="drWHg7Pd6hAd3pLp65W0-25" edge="1">
          <mxGeometry width="50" height="50" relative="1" as="geometry">
            <mxPoint x="5244" y="1832.5" as="sourcePoint" />
            <mxPoint x="4959" y="1547.5" as="targetPoint" />
            <Array as="points">
              <mxPoint x="5299" y="1567.5" />
            </Array>
          </mxGeometry>
        </mxCell>
        <mxCell id="drWHg7Pd6hAd3pLp65W0-38" value="" style="endArrow=classic;html=1;rounded=0;entryX=0.5;entryY=0;entryDx=0;entryDy=0;entryPerimeter=0;fontSize=20;exitX=0.5;exitY=1;exitDx=0;exitDy=0;exitPerimeter=0;" parent="1" source="4wWl5RKdFTkH0k4PYltG-19" target="drWHg7Pd6hAd3pLp65W0-13" edge="1">
          <mxGeometry width="50" height="50" relative="1" as="geometry">
            <mxPoint x="5450" y="2260" as="sourcePoint" />
            <mxPoint x="5470" y="2075" as="targetPoint" />
          </mxGeometry>
        </mxCell>
        <mxCell id="drWHg7Pd6hAd3pLp65W0-42" value="هل نسيت كلمة المرور؟" style="rounded=0;whiteSpace=wrap;html=1;absoluteArcSize=1;arcSize=14;strokeWidth=2;fontSize=20;" parent="1" vertex="1">
          <mxGeometry x="4934" y="1247.5" width="180" height="60" as="geometry" />
        </mxCell>
        <mxCell id="drWHg7Pd6hAd3pLp65W0-43" value="تسجيل دخول" style="rounded=0;whiteSpace=wrap;html=1;absoluteArcSize=1;arcSize=14;strokeWidth=2;fontSize=20;" parent="1" vertex="1">
          <mxGeometry x="5439" y="1437.5" width="180" height="60" as="geometry" />
        </mxCell>
        <mxCell id="drWHg7Pd6hAd3pLp65W0-45" value="" style="endArrow=classic;html=1;rounded=0;exitX=0.5;exitY=1;exitDx=0;exitDy=0;entryX=0.5;entryY=0;entryDx=0;entryDy=0;entryPerimeter=0;fontSize=20;" parent="1" source="drWHg7Pd6hAd3pLp65W0-43" target="drWHg7Pd6hAd3pLp65W0-30" edge="1">
          <mxGeometry width="50" height="50" relative="1" as="geometry">
            <mxPoint x="5639" y="1627.5" as="sourcePoint" />
            <mxPoint x="5469" y="1597.5" as="targetPoint" />
          </mxGeometry>
        </mxCell>
        <mxCell id="drWHg7Pd6hAd3pLp65W0-66" style="edgeStyle=orthogonalEdgeStyle;rounded=0;orthogonalLoop=1;jettySize=auto;html=1;exitX=1;exitY=0;exitDx=0;exitDy=0;exitPerimeter=0;entryX=0.5;entryY=0;entryDx=0;entryDy=0;fontSize=20;" parent="1" source="drWHg7Pd6hAd3pLp65W0-63" target="drWHg7Pd6hAd3pLp65W0-25" edge="1">
          <mxGeometry relative="1" as="geometry" />
        </mxCell>
        <mxCell id="drWHg7Pd6hAd3pLp65W0-73" style="edgeStyle=orthogonalEdgeStyle;rounded=0;orthogonalLoop=1;jettySize=auto;html=1;exitX=1;exitY=1;exitDx=0;exitDy=0;exitPerimeter=0;entryX=0.428;entryY=0.033;entryDx=0;entryDy=0;entryPerimeter=0;fontSize=20;" parent="1" source="drWHg7Pd6hAd3pLp65W0-63" target="drWHg7Pd6hAd3pLp65W0-42" edge="1">
          <mxGeometry relative="1" as="geometry" />
        </mxCell>
        <mxCell id="drWHg7Pd6hAd3pLp65W0-63" value="" style="strokeWidth=2;html=1;shape=mxgraph.flowchart.annotation_1;align=left;pointerEvents=1;rotation=90;rounded=0;fontSize=20;" parent="1" vertex="1">
          <mxGeometry x="5246.5" y="970" width="15" height="480" as="geometry" />
        </mxCell>
        <mxCell id="drWHg7Pd6hAd3pLp65W0-67" value="إدخال رقم الهاتف" style="shape=parallelogram;html=1;strokeWidth=2;perimeter=parallelogramPerimeter;whiteSpace=wrap;rounded=0;arcSize=12;size=0.23;fontSize=20;" parent="1" vertex="1">
          <mxGeometry x="4909" y="1377.5" width="230" height="90" as="geometry" />
        </mxCell>
        <mxCell id="drWHg7Pd6hAd3pLp65W0-68" value="" style="endArrow=classic;html=1;rounded=0;exitX=0.5;exitY=1;exitDx=0;exitDy=0;entryX=0.5;entryY=0;entryDx=0;entryDy=0;fontSize=20;" parent="1" source="drWHg7Pd6hAd3pLp65W0-42" target="drWHg7Pd6hAd3pLp65W0-67" edge="1">
          <mxGeometry width="50" height="50" relative="1" as="geometry">
            <mxPoint x="5384" y="1487.5" as="sourcePoint" />
            <mxPoint x="5384" y="1747.5" as="targetPoint" />
          </mxGeometry>
        </mxCell>
        <mxCell id="drWHg7Pd6hAd3pLp65W0-69" value="إرسال otp" style="rounded=0;whiteSpace=wrap;html=1;absoluteArcSize=1;arcSize=14;strokeWidth=2;fontSize=20;" parent="1" vertex="1">
          <mxGeometry x="4924" y="1527.5" width="180" height="60" as="geometry" />
        </mxCell>
        <mxCell id="drWHg7Pd6hAd3pLp65W0-72" value="" style="endArrow=classic;html=1;rounded=0;exitX=0.458;exitY=1.041;exitDx=0;exitDy=0;entryX=0.5;entryY=0;entryDx=0;entryDy=0;exitPerimeter=0;fontSize=20;" parent="1" source="drWHg7Pd6hAd3pLp65W0-67" target="drWHg7Pd6hAd3pLp65W0-69" edge="1">
          <mxGeometry width="50" height="50" relative="1" as="geometry">
            <mxPoint x="5434" y="1537.5" as="sourcePoint" />
            <mxPoint x="5484" y="1487.5" as="targetPoint" />
          </mxGeometry>
        </mxCell>
        <mxCell id="drWHg7Pd6hAd3pLp65W0-75" value="هل otp صحيح" style="strokeWidth=2;html=1;shape=mxgraph.flowchart.decision;whiteSpace=wrap;fontSize=20;rounded=0;" parent="1" vertex="1">
          <mxGeometry x="4909" y="1797.5" width="210" height="110" as="geometry" />
        </mxCell>
        <mxCell id="drWHg7Pd6hAd3pLp65W0-76" value="تحقق من&amp;nbsp; otp" style="rounded=0;whiteSpace=wrap;html=1;absoluteArcSize=1;arcSize=14;strokeWidth=2;fontSize=20;" parent="1" vertex="1">
          <mxGeometry x="4924" y="1667.5" width="180" height="60" as="geometry" />
        </mxCell>
        <mxCell id="drWHg7Pd6hAd3pLp65W0-79" value="" style="endArrow=classic;html=1;rounded=0;exitX=0.5;exitY=1;exitDx=0;exitDy=0;entryX=0.5;entryY=0;entryDx=0;entryDy=0;fontSize=20;" parent="1" source="drWHg7Pd6hAd3pLp65W0-69" target="drWHg7Pd6hAd3pLp65W0-76" edge="1">
          <mxGeometry width="50" height="50" relative="1" as="geometry">
            <mxPoint x="5149" y="1757.5" as="sourcePoint" />
            <mxPoint x="5199" y="1707.5" as="targetPoint" />
          </mxGeometry>
        </mxCell>
        <mxCell id="drWHg7Pd6hAd3pLp65W0-80" value="" style="endArrow=classic;html=1;rounded=0;exitX=0.5;exitY=1;exitDx=0;exitDy=0;entryX=0.5;entryY=0;entryDx=0;entryDy=0;entryPerimeter=0;fontSize=20;" parent="1" source="drWHg7Pd6hAd3pLp65W0-76" target="drWHg7Pd6hAd3pLp65W0-75" edge="1">
          <mxGeometry width="50" height="50" relative="1" as="geometry">
            <mxPoint x="5024" y="1597.5" as="sourcePoint" />
            <mxPoint x="5024" y="1677.5" as="targetPoint" />
          </mxGeometry>
        </mxCell>
        <mxCell id="drWHg7Pd6hAd3pLp65W0-81" value="" style="endArrow=classic;html=1;rounded=0;exitX=0;exitY=0.5;exitDx=0;exitDy=0;exitPerimeter=0;entryX=1;entryY=0.5;entryDx=0;entryDy=0;fontSize=20;" parent="1" source="drWHg7Pd6hAd3pLp65W0-75" target="drWHg7Pd6hAd3pLp65W0-88" edge="1">
          <mxGeometry width="50" height="50" relative="1" as="geometry">
            <mxPoint x="4849" y="1867.5" as="sourcePoint" />
            <mxPoint x="4789" y="1852.5" as="targetPoint" />
          </mxGeometry>
        </mxCell>
        <mxCell id="drWHg7Pd6hAd3pLp65W0-83" value="لا" style="text;html=1;strokeColor=none;fillColor=none;align=center;verticalAlign=middle;whiteSpace=wrap;rounded=0;fontSize=20;" parent="1" vertex="1">
          <mxGeometry x="4849" y="1827.5" width="60" height="30" as="geometry" />
        </mxCell>
        <mxCell id="drWHg7Pd6hAd3pLp65W0-85" value="نعم" style="text;html=1;strokeColor=none;fillColor=none;align=center;verticalAlign=middle;whiteSpace=wrap;rounded=0;fontSize=20;" parent="1" vertex="1">
          <mxGeometry x="4959" y="1917.5" width="60" height="30" as="geometry" />
        </mxCell>
        <mxCell id="drWHg7Pd6hAd3pLp65W0-86" value="" style="endArrow=classic;html=1;rounded=0;exitX=0.5;exitY=1;exitDx=0;exitDy=0;exitPerimeter=0;entryX=0.5;entryY=0;entryDx=0;entryDy=0;fontSize=20;" parent="1" source="drWHg7Pd6hAd3pLp65W0-75" target="drWHg7Pd6hAd3pLp65W0-87" edge="1">
          <mxGeometry width="50" height="50" relative="1" as="geometry">
            <mxPoint x="4919" y="1862.5" as="sourcePoint" />
            <mxPoint x="5014" y="1987.5" as="targetPoint" />
          </mxGeometry>
        </mxCell>
        <mxCell id="drWHg7Pd6hAd3pLp65W0-87" value="تغيير كلمة السر" style="rounded=0;whiteSpace=wrap;html=1;absoluteArcSize=1;arcSize=14;strokeWidth=2;fontSize=20;" parent="1" vertex="1">
          <mxGeometry x="4924" y="1977.5" width="180" height="60" as="geometry" />
        </mxCell>
        <mxCell id="drWHg7Pd6hAd3pLp65W0-88" value="إعادة إرسال otp" style="rounded=0;whiteSpace=wrap;html=1;absoluteArcSize=1;arcSize=14;strokeWidth=2;fontSize=20;" parent="1" vertex="1">
          <mxGeometry x="4599" y="1822.5" width="180" height="60" as="geometry" />
        </mxCell>
        <mxCell id="drWHg7Pd6hAd3pLp65W0-90" value="" style="endArrow=classic;html=1;rounded=0;exitX=0.75;exitY=0;exitDx=0;exitDy=0;entryX=0;entryY=0.5;entryDx=0;entryDy=0;fontSize=20;" parent="1" source="drWHg7Pd6hAd3pLp65W0-88" target="drWHg7Pd6hAd3pLp65W0-69" edge="1">
          <mxGeometry width="50" height="50" relative="1" as="geometry">
            <mxPoint x="4919" y="1862.5" as="sourcePoint" />
            <mxPoint x="4769" y="1607.5" as="targetPoint" />
            <Array as="points">
              <mxPoint x="4739" y="1557.5" />
            </Array>
          </mxGeometry>
        </mxCell>
        <mxCell id="drWHg7Pd6hAd3pLp65W0-91" value="" style="endArrow=classic;html=1;rounded=0;exitX=0.5;exitY=1;exitDx=0;exitDy=0;entryX=0.274;entryY=0.078;entryDx=0;entryDy=0;entryPerimeter=0;fontSize=20;" parent="1" source="drWHg7Pd6hAd3pLp65W0-87" target="drWHg7Pd6hAd3pLp65W0-13" edge="1">
          <mxGeometry width="50" height="50" relative="1" as="geometry">
            <mxPoint x="5350" y="1915" as="sourcePoint" />
            <mxPoint x="5775" y="2040" as="targetPoint" />
          </mxGeometry>
        </mxCell>
        <mxCell id="drWHg7Pd6hAd3pLp65W0-100" style="edgeStyle=orthogonalEdgeStyle;rounded=0;orthogonalLoop=1;jettySize=auto;html=1;exitX=0.5;exitY=1;exitDx=0;exitDy=0;entryX=0.071;entryY=0.557;entryDx=0;entryDy=0;entryPerimeter=0;fontSize=20;" parent="1" source="drWHg7Pd6hAd3pLp65W0-94" target="drWHg7Pd6hAd3pLp65W0-99" edge="1">
          <mxGeometry relative="1" as="geometry" />
        </mxCell>
        <mxCell id="drWHg7Pd6hAd3pLp65W0-94" value="الملف الشخصي" style="rounded=0;whiteSpace=wrap;html=1;absoluteArcSize=1;arcSize=14;strokeWidth=2;fontSize=20;" parent="1" vertex="1">
          <mxGeometry x="1620" y="950" width="180" height="60" as="geometry" />
        </mxCell>
        <mxCell id="drWHg7Pd6hAd3pLp65W0-102" style="edgeStyle=orthogonalEdgeStyle;rounded=0;orthogonalLoop=1;jettySize=auto;html=1;exitX=1;exitY=0;exitDx=0;exitDy=0;exitPerimeter=0;entryX=0.5;entryY=0;entryDx=0;entryDy=0;fontSize=20;" parent="1" source="drWHg7Pd6hAd3pLp65W0-99" target="drWHg7Pd6hAd3pLp65W0-101" edge="1">
          <mxGeometry relative="1" as="geometry" />
        </mxCell>
        <mxCell id="drWHg7Pd6hAd3pLp65W0-104" style="edgeStyle=orthogonalEdgeStyle;rounded=0;orthogonalLoop=1;jettySize=auto;html=1;exitX=1;exitY=1;exitDx=0;exitDy=0;exitPerimeter=0;entryX=0.5;entryY=0;entryDx=0;entryDy=0;fontSize=20;" parent="1" source="drWHg7Pd6hAd3pLp65W0-99" target="drWHg7Pd6hAd3pLp65W0-103" edge="1">
          <mxGeometry relative="1" as="geometry" />
        </mxCell>
        <mxCell id="drWHg7Pd6hAd3pLp65W0-99" value="" style="strokeWidth=2;html=1;shape=mxgraph.flowchart.annotation_1;align=left;pointerEvents=1;rotation=90;rounded=0;fontSize=20;" parent="1" vertex="1">
          <mxGeometry x="1560" y="850" width="37.5" height="472.5" as="geometry" />
        </mxCell>
        <mxCell id="drWHg7Pd6hAd3pLp65W0-125" style="edgeStyle=orthogonalEdgeStyle;rounded=0;orthogonalLoop=1;jettySize=auto;html=1;exitX=0.5;exitY=1;exitDx=0;exitDy=0;entryX=0.5;entryY=0;entryDx=0;entryDy=0;fontSize=20;" parent="1" source="drWHg7Pd6hAd3pLp65W0-101" target="drWHg7Pd6hAd3pLp65W0-123" edge="1">
          <mxGeometry relative="1" as="geometry" />
        </mxCell>
        <mxCell id="drWHg7Pd6hAd3pLp65W0-101" value="تعديل الملف الشخصي" style="rounded=0;whiteSpace=wrap;html=1;absoluteArcSize=1;arcSize=14;strokeWidth=2;fontSize=20;" parent="1" vertex="1">
          <mxGeometry x="1720" y="1200" width="180" height="60" as="geometry" />
        </mxCell>
        <mxCell id="drWHg7Pd6hAd3pLp65W0-103" value="تعديل كلمة المرور" style="rounded=0;whiteSpace=wrap;html=1;absoluteArcSize=1;arcSize=14;strokeWidth=2;fontSize=20;" parent="1" vertex="1">
          <mxGeometry x="1250" y="1200" width="180" height="60" as="geometry" />
        </mxCell>
        <mxCell id="drWHg7Pd6hAd3pLp65W0-106" value="إدخال كلمة المرور القديمة&amp;nbsp;&lt;br style=&quot;font-size: 20px;&quot;&gt;والجديدة" style="shape=parallelogram;html=1;strokeWidth=2;perimeter=parallelogramPerimeter;whiteSpace=wrap;rounded=0;arcSize=12;size=0.23;fontSize=20;" parent="1" vertex="1">
          <mxGeometry x="1200" y="1340" width="270" height="90" as="geometry" />
        </mxCell>
        <mxCell id="drWHg7Pd6hAd3pLp65W0-108" value="" style="endArrow=classic;html=1;rounded=0;exitX=0.5;exitY=1;exitDx=0;exitDy=0;entryX=0.5;entryY=0;entryDx=0;entryDy=0;fontSize=20;" parent="1" source="drWHg7Pd6hAd3pLp65W0-103" target="drWHg7Pd6hAd3pLp65W0-106" edge="1">
          <mxGeometry width="50" height="50" relative="1" as="geometry">
            <mxPoint x="1770" y="1390" as="sourcePoint" />
            <mxPoint x="1820" y="1340" as="targetPoint" />
          </mxGeometry>
        </mxCell>
        <mxCell id="drWHg7Pd6hAd3pLp65W0-109" value="هل كلمة المرور القديمة&lt;br style=&quot;font-size: 20px;&quot;&gt;صحيحة؟" style="strokeWidth=2;html=1;shape=mxgraph.flowchart.decision;whiteSpace=wrap;fontSize=20;rounded=0;" parent="1" vertex="1">
          <mxGeometry x="1190" y="1505" width="260" height="155" as="geometry" />
        </mxCell>
        <mxCell id="drWHg7Pd6hAd3pLp65W0-114" value="" style="endArrow=classic;html=1;rounded=0;exitX=0.444;exitY=1.044;exitDx=0;exitDy=0;exitPerimeter=0;entryX=0.5;entryY=0;entryDx=0;entryDy=0;entryPerimeter=0;fontSize=20;" parent="1" source="drWHg7Pd6hAd3pLp65W0-106" target="drWHg7Pd6hAd3pLp65W0-109" edge="1">
          <mxGeometry width="50" height="50" relative="1" as="geometry">
            <mxPoint x="1440" y="1630" as="sourcePoint" />
            <mxPoint x="1490" y="1580" as="targetPoint" />
          </mxGeometry>
        </mxCell>
        <mxCell id="drWHg7Pd6hAd3pLp65W0-115" value="" style="endArrow=classic;html=1;rounded=0;exitX=0;exitY=0.5;exitDx=0;exitDy=0;exitPerimeter=0;entryX=1;entryY=0.5;entryDx=0;entryDy=0;fontSize=20;" parent="1" source="drWHg7Pd6hAd3pLp65W0-109" target="drWHg7Pd6hAd3pLp65W0-120" edge="1">
          <mxGeometry width="50" height="50" relative="1" as="geometry">
            <mxPoint x="1270" y="1630" as="sourcePoint" />
            <mxPoint x="1050" y="1560" as="targetPoint" />
          </mxGeometry>
        </mxCell>
        <mxCell id="drWHg7Pd6hAd3pLp65W0-116" value="" style="endArrow=classic;html=1;rounded=0;exitX=0.5;exitY=1;exitDx=0;exitDy=0;exitPerimeter=0;entryX=0.5;entryY=0;entryDx=0;entryDy=0;fontSize=20;" parent="1" source="drWHg7Pd6hAd3pLp65W0-109" target="drWHg7Pd6hAd3pLp65W0-122" edge="1">
          <mxGeometry width="50" height="50" relative="1" as="geometry">
            <mxPoint x="1220" y="1570" as="sourcePoint" />
            <mxPoint x="1315" y="1730" as="targetPoint" />
          </mxGeometry>
        </mxCell>
        <mxCell id="drWHg7Pd6hAd3pLp65W0-117" value="لا" style="text;html=1;strokeColor=none;fillColor=none;align=center;verticalAlign=middle;whiteSpace=wrap;rounded=0;fontSize=20;" parent="1" vertex="1">
          <mxGeometry x="1140" y="1530" width="60" height="30" as="geometry" />
        </mxCell>
        <mxCell id="drWHg7Pd6hAd3pLp65W0-118" value="نعم" style="text;html=1;strokeColor=none;fillColor=none;align=center;verticalAlign=middle;whiteSpace=wrap;rounded=0;fontSize=20;" parent="1" vertex="1">
          <mxGeometry x="1260" y="1630" width="60" height="30" as="geometry" />
        </mxCell>
        <mxCell id="drWHg7Pd6hAd3pLp65W0-120" value="إعادة المحاولة" style="rounded=0;whiteSpace=wrap;html=1;absoluteArcSize=1;arcSize=14;strokeWidth=2;fontSize=20;" parent="1" vertex="1">
          <mxGeometry x="860" y="1550" width="180" height="60" as="geometry" />
        </mxCell>
        <mxCell id="drWHg7Pd6hAd3pLp65W0-121" value="" style="endArrow=classic;html=1;rounded=0;exitX=0.5;exitY=0;exitDx=0;exitDy=0;entryX=0;entryY=0.5;entryDx=0;entryDy=0;fontSize=20;" parent="1" source="drWHg7Pd6hAd3pLp65W0-120" target="drWHg7Pd6hAd3pLp65W0-103" edge="1">
          <mxGeometry width="50" height="50" relative="1" as="geometry">
            <mxPoint x="1220" y="1570" as="sourcePoint" />
            <mxPoint x="1050" y="1570" as="targetPoint" />
            <Array as="points">
              <mxPoint x="950" y="1230" />
            </Array>
          </mxGeometry>
        </mxCell>
        <mxCell id="drWHg7Pd6hAd3pLp65W0-122" value="تغيير كلمة المرور" style="rounded=0;whiteSpace=wrap;html=1;absoluteArcSize=1;arcSize=14;strokeWidth=2;fontSize=20;" parent="1" vertex="1">
          <mxGeometry x="1230" y="1720" width="180" height="60" as="geometry" />
        </mxCell>
        <mxCell id="drWHg7Pd6hAd3pLp65W0-126" style="edgeStyle=orthogonalEdgeStyle;rounded=0;orthogonalLoop=1;jettySize=auto;html=1;exitX=0.5;exitY=1;exitDx=0;exitDy=0;entryX=0.5;entryY=0;entryDx=0;entryDy=0;fontSize=20;" parent="1" source="drWHg7Pd6hAd3pLp65W0-123" target="drWHg7Pd6hAd3pLp65W0-124" edge="1">
          <mxGeometry relative="1" as="geometry" />
        </mxCell>
        <mxCell id="drWHg7Pd6hAd3pLp65W0-123" value="التحقق من البيانات" style="rounded=0;whiteSpace=wrap;html=1;absoluteArcSize=1;arcSize=14;strokeWidth=2;fontSize=20;" parent="1" vertex="1">
          <mxGeometry x="1720" y="1320" width="180" height="60" as="geometry" />
        </mxCell>
        <mxCell id="drWHg7Pd6hAd3pLp65W0-124" value="حفظ" style="rounded=0;whiteSpace=wrap;html=1;absoluteArcSize=1;arcSize=14;strokeWidth=2;fontSize=20;" parent="1" vertex="1">
          <mxGeometry x="1720" y="1430" width="180" height="60" as="geometry" />
        </mxCell>
        <mxCell id="drWHg7Pd6hAd3pLp65W0-136" value="" style="endArrow=classic;html=1;entryX=0;entryY=0.5;entryDx=0;entryDy=0;entryPerimeter=0;exitX=0.5;exitY=1;exitDx=0;exitDy=0;" parent="1" source="drWHg7Pd6hAd3pLp65W0-124" target="drWHg7Pd6hAd3pLp65W0-13" edge="1">
          <mxGeometry width="50" height="50" relative="1" as="geometry">
            <mxPoint x="4990" y="1910" as="sourcePoint" />
            <mxPoint x="5040" y="1860" as="targetPoint" />
            <Array as="points">
              <mxPoint x="4410" y="2275" />
            </Array>
          </mxGeometry>
        </mxCell>
        <mxCell id="drWHg7Pd6hAd3pLp65W0-137" value="" style="endArrow=classic;html=1;entryX=0;entryY=0.5;entryDx=0;entryDy=0;entryPerimeter=0;exitX=0.5;exitY=1;exitDx=0;exitDy=0;" parent="1" source="drWHg7Pd6hAd3pLp65W0-120" target="drWHg7Pd6hAd3pLp65W0-13" edge="1">
          <mxGeometry width="50" height="50" relative="1" as="geometry">
            <mxPoint x="4990" y="1910" as="sourcePoint" />
            <mxPoint x="5040" y="1860" as="targetPoint" />
            <Array as="points">
              <mxPoint x="3570" y="2275" />
            </Array>
          </mxGeometry>
        </mxCell>
        <mxCell id="4wWl5RKdFTkH0k4PYltG-4" style="edgeStyle=orthogonalEdgeStyle;rounded=0;orthogonalLoop=1;jettySize=auto;html=1;exitX=0.5;exitY=1;exitDx=0;exitDy=0;exitPerimeter=0;entryX=0.5;entryY=0;entryDx=0;entryDy=0;" edge="1" parent="1" source="4wWl5RKdFTkH0k4PYltG-3" target="drWHg7Pd6hAd3pLp65W0-17">
          <mxGeometry relative="1" as="geometry" />
        </mxCell>
        <mxCell id="4wWl5RKdFTkH0k4PYltG-7" style="edgeStyle=orthogonalEdgeStyle;rounded=0;orthogonalLoop=1;jettySize=auto;html=1;exitX=0;exitY=0.5;exitDx=0;exitDy=0;exitPerimeter=0;entryX=1;entryY=0.5;entryDx=0;entryDy=0;entryPerimeter=0;" edge="1" parent="1" source="4wWl5RKdFTkH0k4PYltG-3" target="4wWl5RKdFTkH0k4PYltG-6">
          <mxGeometry relative="1" as="geometry" />
        </mxCell>
        <mxCell id="4wWl5RKdFTkH0k4PYltG-3" value="هل لديك حساب؟" style="strokeWidth=2;html=1;shape=mxgraph.flowchart.decision;whiteSpace=wrap;fontSize=20;rounded=0;" vertex="1" parent="1">
          <mxGeometry x="5235" y="770" width="210" height="110" as="geometry" />
        </mxCell>
        <mxCell id="4wWl5RKdFTkH0k4PYltG-5" value="&lt;font style=&quot;font-size: 15px;&quot;&gt;نعم&lt;/font&gt;" style="text;html=1;strokeColor=none;fillColor=none;align=center;verticalAlign=middle;whiteSpace=wrap;rounded=0;" vertex="1" parent="1">
          <mxGeometry x="5349" y="900" width="60" height="30" as="geometry" />
        </mxCell>
        <mxCell id="4wWl5RKdFTkH0k4PYltG-9" style="edgeStyle=orthogonalEdgeStyle;rounded=0;orthogonalLoop=1;jettySize=auto;html=1;exitX=0.5;exitY=1;exitDx=0;exitDy=0;exitPerimeter=0;entryX=0.5;entryY=0;entryDx=0;entryDy=0;" edge="1" parent="1" source="4wWl5RKdFTkH0k4PYltG-6" target="LmqgDKNG7vSiQx1K-JEj-14">
          <mxGeometry relative="1" as="geometry" />
        </mxCell>
        <mxCell id="4wWl5RKdFTkH0k4PYltG-17" style="edgeStyle=orthogonalEdgeStyle;rounded=0;orthogonalLoop=1;jettySize=auto;html=1;exitX=0;exitY=0.5;exitDx=0;exitDy=0;exitPerimeter=0;entryX=1;entryY=0.5;entryDx=0;entryDy=0;" edge="1" parent="1" source="4wWl5RKdFTkH0k4PYltG-6" target="LmqgDKNG7vSiQx1K-JEj-12">
          <mxGeometry relative="1" as="geometry" />
        </mxCell>
        <mxCell id="4wWl5RKdFTkH0k4PYltG-6" value="هل تريد إنشاء&amp;nbsp;&lt;br&gt;حساب كعميل؟" style="strokeWidth=2;html=1;shape=mxgraph.flowchart.decision;whiteSpace=wrap;fontSize=20;rounded=0;" vertex="1" parent="1">
          <mxGeometry x="3880" y="730" width="280" height="190" as="geometry" />
        </mxCell>
        <mxCell id="4wWl5RKdFTkH0k4PYltG-8" value="&lt;font style=&quot;font-size: 15px;&quot;&gt;لا&lt;/font&gt;" style="text;html=1;strokeColor=none;fillColor=none;align=center;verticalAlign=middle;whiteSpace=wrap;rounded=0;" vertex="1" parent="1">
          <mxGeometry x="5170" y="790" width="60" height="30" as="geometry" />
        </mxCell>
        <mxCell id="4wWl5RKdFTkH0k4PYltG-10" value="&lt;font style=&quot;font-size: 15px;&quot;&gt;نعم&lt;/font&gt;" style="text;html=1;strokeColor=none;fillColor=none;align=center;verticalAlign=middle;whiteSpace=wrap;rounded=0;" vertex="1" parent="1">
          <mxGeometry x="4020" y="920" width="60" height="30" as="geometry" />
        </mxCell>
        <mxCell id="4wWl5RKdFTkH0k4PYltG-11" value="&lt;font style=&quot;font-size: 15px;&quot;&gt;لا&lt;/font&gt;" style="text;html=1;strokeColor=none;fillColor=none;align=center;verticalAlign=middle;whiteSpace=wrap;rounded=0;" vertex="1" parent="1">
          <mxGeometry x="3790" y="780" width="60" height="30" as="geometry" />
        </mxCell>
        <mxCell id="4wWl5RKdFTkH0k4PYltG-19" value="هل تريد الذهاب إلى&amp;nbsp;&lt;br&gt;&amp;nbsp;الملف الشخصي ؟" style="strokeWidth=2;html=1;shape=mxgraph.flowchart.decision;whiteSpace=wrap;fontSize=20;rounded=0;" vertex="1" parent="1">
          <mxGeometry x="5450" y="2030" width="210" height="182.5" as="geometry" />
        </mxCell>
      </root>
    </mxGraphModel>
  </diagram>
</mxfile>
